<?xml version="1.0" encoding="UTF-8" standalone="no"?>
<!-- Created with Inkscape (http://www.inkscape.org/) -->

<svg
   width="500"
   height="500"
   viewBox="0 0 132.29166 132.29167"
   version="1.1"
   id="svg44944"
   inkscape:version="1.1.2 (0a00cf5339, 2022-02-04)"
   sodipodi:docname="favicon.svg"
   inkscape:export-filename="../40814fe1/logo-only.png"
   inkscape:export-xdpi="96"
   inkscape:export-ydpi="96"
   xmlns:inkscape="http://www.inkscape.org/namespaces/inkscape"
   xmlns:sodipodi="http://sodipodi.sourceforge.net/DTD/sodipodi-0.dtd"
   xmlns="http://www.w3.org/2000/svg"
   xmlns:svg="http://www.w3.org/2000/svg">
  <sodipodi:namedview
     id="namedview44946"
     pagecolor="#ffffff"
     bordercolor="#000000"
     borderopacity="0.25"
     inkscape:showpageshadow="2"
     inkscape:pageopacity="0.0"
     inkscape:pagecheckerboard="true"
     inkscape:deskcolor="#d1d1d1"
     inkscape:document-units="mm"
     showgrid="false"
     inkscape:zoom="1.1023743"
     inkscape:cx="209.5477"
     inkscape:cy="217.25833"
     inkscape:window-width="1846"
     inkscape:window-height="1016"
     inkscape:window-x="1994"
     inkscape:window-y="27"
     inkscape:window-maximized="1"
     inkscape:current-layer="layer1"
     inkscape:pageshadow="2"
     units="px"
     width="500px" />
  <defs
     id="defs44941">
    <clipPath
       id="pf8ec8cbf24">
      <rect
         x="10.8"
         y="10.8"
         width="266.39999"
         height="266.39999"
         id="rect95" />
    </clipPath>
    <clipPath
       id="clipPath44767">
      <rect
         x="10.8"
         y="10.8"
         width="266.39999"
         height="266.39999"
         id="rect44765" />
    </clipPath>
    <clipPath
       id="clipPath44771">
      <rect
         x="10.8"
         y="10.8"
         width="266.39999"
         height="266.39999"
         id="rect44769" />
    </clipPath>
    <clipPath
       id="clipPath44775">
      <rect
         x="10.8"
         y="10.8"
         width="266.39999"
         height="266.39999"
         id="rect44773" />
    </clipPath>
    <clipPath
       id="clipPath44779">
      <rect
         x="10.8"
         y="10.8"
         width="266.39999"
         height="266.39999"
         id="rect44777" />
    </clipPath>
    <clipPath
       id="clipPath44783">
      <rect
         x="10.8"
         y="10.8"
         width="266.39999"
         height="266.39999"
         id="rect44781" />
    </clipPath>
    <clipPath
       id="clipPath44787">
      <rect
         x="10.8"
         y="10.8"
         width="266.39999"
         height="266.39999"
         id="rect44785" />
    </clipPath>
    <clipPath
       id="clipPath44791">
      <rect
         x="10.8"
         y="10.8"
         width="266.39999"
         height="266.39999"
         id="rect44789" />
    </clipPath>
    <clipPath
       id="clipPath44795">
      <rect
         x="10.8"
         y="10.8"
         width="266.39999"
         height="266.39999"
         id="rect44793" />
    </clipPath>
    <clipPath
       id="clipPath44799">
      <rect
         x="10.8"
         y="10.8"
         width="266.39999"
         height="266.39999"
         id="rect44797" />
    </clipPath>
    <clipPath
       id="clipPath44803">
      <rect
         x="10.8"
         y="10.8"
         width="266.39999"
         height="266.39999"
         id="rect44801" />
    </clipPath>
    <clipPath
       id="clipPath44807">
      <rect
         x="10.8"
         y="10.8"
         width="266.39999"
         height="266.39999"
         id="rect44805" />
    </clipPath>
    <clipPath
       id="clipPath44811">
      <rect
         x="10.8"
         y="10.8"
         width="266.39999"
         height="266.39999"
         id="rect44809" />
    </clipPath>
    <clipPath
       id="clipPath44815">
      <rect
         x="10.8"
         y="10.8"
         width="266.39999"
         height="266.39999"
         id="rect44813" />
    </clipPath>
    <clipPath
       id="clipPath44819">
      <rect
         x="10.8"
         y="10.8"
         width="266.39999"
         height="266.39999"
         id="rect44817" />
    </clipPath>
    <path
       id="m63b86c8195"
       d="M 0,10 C 2.652031,10 5.195799,8.946337 7.071068,7.071068 8.946337,5.195799 10,2.652031 10,0 10,-2.652031 8.946337,-5.195799 7.071068,-7.071068 5.195799,-8.946337 2.652031,-10 0,-10 -2.652031,-10 -5.195799,-8.946337 -7.071068,-7.071068 -8.946337,-5.195799 -10,-2.652031 -10,0 -10,2.652031 -8.946337,5.195799 -7.071068,7.071068 -5.195799,8.946337 -2.652031,10 0,10 Z"
       style="stroke:#1f77b4" />
  </defs>
  <g
     inkscape:label="Layer 1"
     inkscape:groupmode="layer"
     id="layer1"
     transform="translate(-79.608307,-74.78228)">
    <circle
       cx="145.75414"
       cy="140.92812"
       r="66.145836"
       fill="#ffffff"
       id="circle2"
       style="stroke-width:0.264583" />
    <g
       id="axes_1"
       transform="matrix(0.4782835,0,0,0.4782835,76.881316,72.055292)"
       style="stroke-linecap:butt;stroke-linejoin:round">
      <g
         id="PathCollection_1"
         style="stroke-linecap:butt;stroke-linejoin:round">
        <defs
           id="defs28">
          <path
             id="path45131"
             d="M 0,10 C 2.652031,10 5.195799,8.946337 7.071068,7.071068 8.946337,5.195799 10,2.652031 10,0 10,-2.652031 8.946337,-5.195799 7.071068,-7.071068 5.195799,-8.946337 2.652031,-10 0,-10 -2.652031,-10 -5.195799,-8.946337 -7.071068,-7.071068 -8.946337,-5.195799 -10,-2.652031 -10,0 -10,2.652031 -8.946337,5.195799 -7.071068,7.071068 -5.195799,8.946337 -2.652031,10 0,10 Z"
             style="stroke:#1f77b4" />
        </defs>
        <g
           clip-path="url(#pf8ec8cbf24)"
           id="g32"
           style="stroke-linecap:butt;stroke-linejoin:round">
          <path
             id="use30"
             d="m 144,31.65288 c 2.65203,0 5.1958,-1.053663 7.07107,-2.928932 C 152.94634,26.848679 154,24.304911 154,21.65288 154,19.000849 152.94634,16.457081 151.07107,14.581812 149.1958,12.706543 146.65203,11.65288 144,11.65288 c -2.65203,0 -5.1958,1.053663 -7.07107,2.928932 C 135.05366,16.457081 134,19.000849 134,21.65288 c 0,2.652031 1.05366,5.195799 2.92893,7.071068 1.87527,1.875269 4.41904,2.928932 7.07107,2.928932 z"
             style="fill:#1f77b4;stroke:#1f77b4;stroke-linecap:butt;stroke-linejoin:round" />
        </g>
      </g>
      <g
         id="PathCollection_2"
         style="stroke-linecap:butt;stroke-linejoin:round">
        <g
           clip-path="url(#pf8ec8cbf24)"
           id="g37"
           style="stroke-linecap:butt;stroke-linejoin:round">
          <path
             id="use35"
             d="m 168.78163,59.289513 c 2.65203,0 5.1958,-1.053663 7.07107,-2.928932 1.87527,-1.875269 2.92893,-4.419037 2.92893,-7.071068 0,-2.652031 -1.05366,-5.195799 -2.92893,-7.071068 -1.87527,-1.875269 -4.41904,-2.928932 -7.07107,-2.928932 -2.65203,0 -5.1958,1.053663 -7.07107,2.928932 -1.87527,1.875269 -2.92893,4.419037 -2.92893,7.071068 0,2.652031 1.05366,5.195799 2.92893,7.071068 1.87527,1.875269 4.41904,2.928932 7.07107,2.928932 z"
             style="fill:#1f77b4;stroke:#1f77b4;stroke-linecap:butt;stroke-linejoin:round" />
        </g>
      </g>
      <g
         id="PathCollection_3"
         style="stroke-linecap:butt;stroke-linejoin:round">
        <g
           clip-path="url(#pf8ec8cbf24)"
           id="g42"
           style="stroke-linecap:butt;stroke-linejoin:round">
          <path
             id="use40"
             d="m 119.21837,59.289513 c 2.65203,0 5.1958,-1.053663 7.07107,-2.928932 1.87527,-1.875269 2.92893,-4.419037 2.92893,-7.071068 0,-2.652031 -1.05366,-5.195799 -2.92893,-7.071068 -1.87527,-1.875269 -4.41904,-2.928932 -7.07107,-2.928932 -2.65203,0 -5.1958,1.053663 -7.07107,2.928932 -1.87527,1.875269 -2.92893,4.419037 -2.92893,7.071068 0,2.652031 1.05366,5.195799 2.92893,7.071068 1.87527,1.875269 4.41904,2.928932 7.07107,2.928932 z"
             style="fill:#1f77b4;stroke:#1f77b4;stroke-linecap:butt;stroke-linejoin:round" />
        </g>
      </g>
      <g
         id="PathCollection_4"
         style="stroke-linecap:butt;stroke-linejoin:round">
        <g
           clip-path="url(#pf8ec8cbf24)"
           id="g47"
           style="stroke-linecap:butt;stroke-linejoin:round">
          <path
             id="use45"
             d="m 144,140.18169 c 2.65203,0 5.1958,-1.05367 7.07107,-2.92894 1.87527,-1.87526 2.92893,-4.41903 2.92893,-7.07106 0,-2.65203 -1.05366,-5.1958 -2.92893,-7.07107 -1.87527,-1.87527 -4.41904,-2.92893 -7.07107,-2.92893 -2.65203,0 -5.1958,1.05366 -7.07107,2.92893 -1.87527,1.87527 -2.92893,4.41904 -2.92893,7.07107 0,2.65203 1.05366,5.1958 2.92893,7.07106 1.87527,1.87527 4.41904,2.92894 7.07107,2.92894 z"
             style="fill:#1f77b4;stroke:#1f77b4;stroke-linecap:butt;stroke-linejoin:round" />
        </g>
      </g>
      <g
         id="PathCollection_5"
         style="stroke-linecap:butt;stroke-linejoin:round">
        <g
           clip-path="url(#pf8ec8cbf24)"
           id="g52"
           style="stroke-linecap:butt;stroke-linejoin:round">
          <path
             id="use50"
             d="m 168.78163,167.81831 c 2.65203,0 5.1958,-1.05366 7.07107,-2.92893 1.87527,-1.87527 2.92893,-4.41904 2.92893,-7.07107 0,-2.65203 -1.05366,-5.1958 -2.92893,-7.07106 -1.87527,-1.87527 -4.41904,-2.92894 -7.07107,-2.92894 -2.65203,0 -5.1958,1.05367 -7.07107,2.92894 -1.87527,1.87526 -2.92893,4.41903 -2.92893,7.07106 0,2.65203 1.05366,5.1958 2.92893,7.07107 1.87527,1.87527 4.41904,2.92893 7.07107,2.92893 z"
             style="fill:#1f77b4;stroke:#1f77b4;stroke-linecap:butt;stroke-linejoin:round" />
        </g>
      </g>
      <g
         id="PathCollection_6"
         style="stroke-linecap:butt;stroke-linejoin:round">
        <g
           clip-path="url(#pf8ec8cbf24)"
           id="g57"
           style="stroke-linecap:butt;stroke-linejoin:round">
          <path
             id="use55"
             d="m 119.21837,167.81831 c 2.65203,0 5.1958,-1.05366 7.07107,-2.92893 1.87527,-1.87527 2.92893,-4.41904 2.92893,-7.07107 0,-2.65203 -1.05366,-5.1958 -2.92893,-7.07106 -1.87527,-1.87527 -4.41904,-2.92894 -7.07107,-2.92894 -2.65203,0 -5.1958,1.05367 -7.07107,2.92894 -1.87527,1.87526 -2.92893,4.41903 -2.92893,7.07106 0,2.65203 1.05366,5.1958 2.92893,7.07107 1.87527,1.87527 4.41904,2.92893 7.07107,2.92893 z"
             style="fill:#1f77b4;stroke:#1f77b4;stroke-linecap:butt;stroke-linejoin:round" />
        </g>
      </g>
      <g
         id="PathCollection_7"
         style="stroke-linecap:butt;stroke-linejoin:round">
        <g
           clip-path="url(#pf8ec8cbf24)"
           id="g62"
           style="stroke-linecap:butt;stroke-linejoin:round">
          <path
             id="use60"
             d="m 144,248.71048 c 2.65203,0 5.1958,-1.05366 7.07107,-2.92893 1.87527,-1.87527 2.92893,-4.41904 2.92893,-7.07107 0,-2.65203 -1.05366,-5.1958 -2.92893,-7.07107 -1.87527,-1.87527 -4.41904,-2.92893 -7.07107,-2.92893 -2.65203,0 -5.1958,1.05366 -7.07107,2.92893 -1.87527,1.87527 -2.92893,4.41904 -2.92893,7.07107 0,2.65203 1.05366,5.1958 2.92893,7.07107 1.87527,1.87527 4.41904,2.92893 7.07107,2.92893 z"
             style="fill:#1f77b4;stroke:#1f77b4;stroke-linecap:butt;stroke-linejoin:round" />
        </g>
      </g>
      <g
         id="PathCollection_8"
         style="stroke-linecap:butt;stroke-linejoin:round">
        <g
           clip-path="url(#pf8ec8cbf24)"
           id="g67"
           style="stroke-linecap:butt;stroke-linejoin:round">
          <path
             id="use65"
             d="m 168.78163,276.34711 c 2.65203,0 5.1958,-1.05367 7.07107,-2.92894 1.87527,-1.87526 2.92893,-4.41903 2.92893,-7.07106 0,-2.65203 -1.05366,-5.1958 -2.92893,-7.07107 -1.87527,-1.87527 -4.41904,-2.92893 -7.07107,-2.92893 -2.65203,0 -5.1958,1.05366 -7.07107,2.92893 -1.87527,1.87527 -2.92893,4.41904 -2.92893,7.07107 0,2.65203 1.05366,5.1958 2.92893,7.07106 1.87527,1.87527 4.41904,2.92894 7.07107,2.92894 z"
             style="fill:#1f77b4;stroke:#1f77b4;stroke-linecap:butt;stroke-linejoin:round" />
        </g>
      </g>
      <g
         id="PathCollection_9"
         style="stroke-linecap:butt;stroke-linejoin:round">
        <g
           clip-path="url(#pf8ec8cbf24)"
           id="g72"
           style="stroke-linecap:butt;stroke-linejoin:round">
          <path
             id="use70"
             d="m 119.21837,276.34711 c 2.65203,0 5.1958,-1.05367 7.07107,-2.92894 1.87527,-1.87526 2.92893,-4.41903 2.92893,-7.07106 0,-2.65203 -1.05366,-5.1958 -2.92893,-7.07107 -1.87527,-1.87527 -4.41904,-2.92893 -7.07107,-2.92893 -2.65203,0 -5.1958,1.05366 -7.07107,2.92893 -1.87527,1.87527 -2.92893,4.41904 -2.92893,7.07107 0,2.65203 1.05366,5.1958 2.92893,7.07106 1.87527,1.87527 4.41904,2.92894 7.07107,2.92894 z"
             style="fill:#1f77b4;stroke:#1f77b4;stroke-linecap:butt;stroke-linejoin:round" />
        </g>
      </g>
      <g
         id="line2d_1"
         style="stroke-linecap:butt;stroke-linejoin:round">
        <path
           d="m 144,21.65288 9.68509,9.816676 5.09284,5.453709 3.81544,4.362967 3.51926,4.362967 2.41115,3.272225 2.19129,3.272225 1.95177,3.272225 1.69476,3.272226 1.42256,3.272225 1.1376,3.272225 0.84244,3.272225 0.53973,3.272225 0.23218,3.272226 -0.0775,3.272225 -0.38638,3.272225 -0.69186,3.272225 -0.99114,3.272226 -1.28151,3.272225 -1.56041,3.272225 -1.82531,3.272225 -2.07386,3.272228 -2.3038,3.27222 -3.39346,4.36297 -3.71126,4.36297 -4.99552,5.4537 -6.3523,6.54446 -17.16156,17.45186 -4.9244,5.45371 -3.63717,4.36297 -3.30534,4.36297 -2.22935,3.27222 -1.99297,3.27223 -1.73871,3.27222 -1.46888,3.27223 -1.18587,3.27222 -0.89223,3.27223 -0.59059,3.27222 -0.28366,3.27223 0.0258,3.27222 0.33506,3.27223 0.64131,3.27222 0.9418,3.27223 1.23384,3.27222 1.51484,3.27223 1.78223,3.27222 2.03367,3.27223 2.26686,3.27222 3.34981,4.36297 3.67468,4.36297 4.96057,5.45371 6.32732,6.54445 5.43108,5.45371 v 0"
           clip-path="url(#pf8ec8cbf24)"
           style="fill:none;stroke:#1f77b4;stroke-width:13;stroke-linecap:square;stroke-linejoin:round;stroke-opacity:0.3"
           id="path75" />
      </g>
      <g
         id="line2d_2"
         style="stroke-linecap:butt;stroke-linejoin:round">
        <path
           d="m 144,21.65288 -9.68509,9.816676 -5.09284,5.453709 -3.81544,4.362967 -3.51926,4.362967 -2.41115,3.272225 -2.19129,3.272225 -1.95177,3.272225 -1.69476,3.272226 -1.42256,3.272225 -1.1376,3.272225 -0.84244,3.272225 -0.53973,3.272225 -0.23218,3.272226 0.0775,3.272225 0.38638,3.272225 0.69186,3.272225 0.99114,3.272226 1.28151,3.272225 1.56041,3.272225 1.82531,3.272225 2.07386,3.272228 2.3038,3.27222 3.39346,4.36297 3.71126,4.36297 4.99551,5.4537 6.35231,6.54446 17.16156,17.45186 4.9244,5.45371 3.63717,4.36297 3.30534,4.36297 2.22935,3.27222 1.99297,3.27223 1.73871,3.27222 1.46888,3.27223 1.18587,3.27222 0.89223,3.27223 0.59059,3.27222 0.28366,3.27223 -0.0258,3.27222 -0.33507,3.27223 -0.6413,3.27222 -0.9418,3.27223 -1.23384,3.27222 -1.51484,3.27223 -1.78223,3.27222 -2.03367,3.27223 -2.26686,3.27222 -3.34981,4.36297 -3.67468,4.36297 -4.96057,5.45371 -6.32732,6.54445 L 144,238.71049 v 0"
           clip-path="url(#pf8ec8cbf24)"
           style="fill:none;stroke:#1f77b4;stroke-width:13;stroke-linecap:square;stroke-linejoin:round;stroke-opacity:0.8"
           id="path78" />
      </g>
      <g
         id="line2d_3"
         style="stroke-linecap:butt;stroke-linejoin:round">
        <path
           d="m 119.21837,49.289513 9.68509,9.816676 5.09284,5.453709 3.81544,4.362966 3.51926,4.362967 2.41115,3.272226 2.19128,3.272225 1.95178,3.272225 1.69476,3.272225 1.42255,3.272226 1.1376,3.272225 0.84244,3.272225 0.53973,3.272225 0.23218,3.272227 -0.0774,3.27222 -0.38639,3.27223 -0.69186,3.27222 -0.99113,3.27223 -1.28151,3.27223 -1.56041,3.27222 -1.82532,3.27223 -2.07385,3.27222 -2.3038,3.27223 -3.39346,4.36296 -3.71126,4.36297 -4.99552,5.45371 -6.3523,6.54445 -17.16156,17.45187 -4.9244,5.4537 -3.637172,4.36297 -3.305343,4.36297 -2.229349,3.27222 -1.992966,3.27223 -1.738716,3.27223 -1.468878,3.27222 -1.18587,3.27222 -0.89223,3.27223 -0.590591,3.27223 -0.283658,3.27222 0.02582,3.27223 0.335065,3.27222 0.641306,3.27223 0.941798,3.27222 1.233846,3.27223 1.514832,3.27222 1.782237,3.27223 2.033664,3.27222 2.266857,3.27223 3.349817,4.36296 3.674671,4.36297 4.96058,5.45371 6.32731,6.54445 5.43109,5.45371 v 0"
           clip-path="url(#pf8ec8cbf24)"
           style="fill:none;stroke:#1f77b4;stroke-width:13;stroke-linecap:square;stroke-linejoin:round;stroke-opacity:0.3"
           id="path81" />
      </g>
      <g
         id="line2d_4"
         style="stroke-linecap:butt;stroke-linejoin:round">
        <path
           d="m 119.21837,49.289513 -9.6851,9.816676 -5.09284,5.453709 -3.81543,4.362966 -3.519264,4.362967 -2.411151,3.272226 -2.191285,3.272225 -1.951772,3.272225 -1.694762,3.272225 -1.422557,3.272226 -1.137598,3.272225 -0.842441,3.272225 -0.539729,3.272225 -0.23218,3.272227 0.07745,3.27222 0.386388,3.27223 0.691861,3.27222 0.99113,3.27223 1.281515,3.27223 1.560409,3.27222 1.825314,3.27223 2.073854,3.27222 2.303801,3.27223 3.393457,4.36296 3.71126,4.36297 4.99552,5.45371 6.35231,6.54445 17.16155,17.45187 4.9244,5.4537 3.63717,4.36297 3.30535,4.36297 2.22935,3.27222 1.99296,3.27223 1.73872,3.27223 1.46888,3.27222 1.18587,3.27222 0.89223,3.27223 0.59059,3.27223 0.28366,3.27222 -0.0258,3.27223 -0.33507,3.27222 -0.6413,3.27223 -0.9418,3.27222 -1.23385,3.27223 -1.51483,3.27222 -1.78224,3.27223 -2.03366,3.27222 -2.26686,3.27223 -3.34982,4.36296 -3.67467,4.36297 -4.96058,5.45371 -6.32731,6.54445 -5.43108,5.45371 v 0"
           clip-path="url(#pf8ec8cbf24)"
           style="fill:none;stroke:#1f77b4;stroke-width:13;stroke-linecap:square;stroke-linejoin:round;stroke-opacity:0.8"
           id="path84" />
      </g>
      <g
         id="line2d_5"
         style="stroke-linecap:butt;stroke-linejoin:round">
        <path
           d="m 168.78163,49.289513 9.6851,9.816676 5.09283,5.453709 3.81544,4.362966 3.51926,4.362967 2.41115,3.272226 2.19129,3.272225 1.95177,3.272225 1.69476,3.272225 1.42256,3.272226 1.1376,3.272225 0.84244,3.272225 0.53973,3.272225 0.23218,3.272227 -0.0774,3.27222 -0.38639,3.27223 -0.69186,3.27222 -0.99113,3.27223 -1.28152,3.27223 -1.56041,3.27222 -1.82531,3.27223 -2.07385,3.27222 -2.3038,3.27223 -3.39346,4.36296 -3.71126,4.36297 -4.99552,5.45371 -6.35231,6.54445 -17.16155,17.45187 -4.92441,5.4537 -3.63717,4.36297 -3.30534,4.36297 -2.22935,3.27222 -1.99296,3.27223 -1.73872,3.27223 -1.46888,3.27222 -1.18587,3.27222 -0.89223,3.27223 -0.59059,3.27223 -0.28366,3.27222 0.0258,3.27223 0.33507,3.27222 0.6413,3.27223 0.9418,3.27222 1.23385,3.27223 1.51483,3.27222 1.78224,3.27223 2.03366,3.27222 2.26686,3.27223 3.34982,4.36296 3.67467,4.36297 4.96058,5.45371 6.32731,6.54445 5.43108,5.45371 v 0"
           clip-path="url(#pf8ec8cbf24)"
           style="fill:none;stroke:#1f77b4;stroke-width:13;stroke-linecap:square;stroke-linejoin:round;stroke-opacity:0.3"
           id="path87" />
      </g>
      <g
         id="line2d_6"
         style="stroke-linecap:butt;stroke-linejoin:round">
        <path
           d="m 168.78163,49.289513 -9.68509,9.816676 -5.09284,5.453709 -3.81544,4.362966 -3.51926,4.362967 -2.41115,3.272226 -2.19128,3.272225 -1.95178,3.272225 -1.69476,3.272225 -1.42255,3.272226 -1.1376,3.272225 -0.84244,3.272225 -0.53973,3.272225 -0.23218,3.272227 0.0774,3.27222 0.38639,3.27223 0.69186,3.27222 0.99113,3.27223 1.28151,3.27223 1.56041,3.27222 1.82532,3.27223 2.07385,3.27222 2.3038,3.27223 3.39346,4.36296 3.71126,4.36297 4.99552,5.45371 6.3523,6.54445 17.16156,17.45187 4.9244,5.4537 3.63717,4.36297 3.30534,4.36297 2.22935,3.27222 1.99297,3.27223 1.73872,3.27223 1.46887,3.27222 1.18587,3.27222 0.89223,3.27223 0.59059,3.27223 0.28366,3.27222 -0.0258,3.27223 -0.33506,3.27222 -0.64131,3.27223 -0.9418,3.27222 -1.23384,3.27223 -1.51483,3.27222 -1.78224,3.27223 -2.03366,3.27222 -2.26686,3.27223 -3.34982,4.36296 -3.67467,4.36297 -4.96058,5.45371 -6.32731,6.54445 -5.43109,5.45371 v 0"
           clip-path="url(#pf8ec8cbf24)"
           style="fill:none;stroke:#1f77b4;stroke-width:13;stroke-linecap:square;stroke-linejoin:round;stroke-opacity:0.8"
           id="path90" />
      </g>
    </g>
  </g>
</svg>
