<?xml version="1.0" encoding="utf-8"?>
<!-- Generator: Adobe Illustrator 23.0.3, SVG Export Plug-In . SVG Version: 6.00 Build 0)  -->
<svg version="1.1" id="Icons" xmlns="http://www.w3.org/2000/svg" xmlns:xlink="http://www.w3.org/1999/xlink" x="0px" y="0px"
	 viewBox="0 0 32 32" style="enable-background:new 0 0 32 32;" xml:space="preserve">
<style type="text/css">
	.st0{fill:none;stroke:#000000;stroke-width:2;stroke-linecap:round;stroke-linejoin:round;stroke-miterlimit:10;}
</style>
<circle class="st0" cx="22" cy="22" r="7"/>
<line class="st0" x1="19.9" y1="19.9" x2="24.1" y2="24.1"/>
<line class="st0" x1="19.9" y1="24.1" x2="24.1" y2="19.9"/>
<rect x="3" y="9" class="st0" width="22" height="5"/>
<rect x="10" y="9" class="st0" width="8" height="5"/>
<line class="st0" x1="11" y1="27" x2="11" y2="14"/>
<path class="st0" d="M21.7,4.4c-1-2-3.8-1.9-5,0.2L14,9l4.8,0C21.1,8.9,22.7,6.4,21.7,4.4z"/>
<path class="st0" d="M6.3,4.4c1-2,3.8-1.9,5,0.2L14,9L9.2,9C6.9,8.9,5.3,6.4,6.3,4.4z"/>
<polyline class="st0" points="17.1,27 4,27 4,14 24,14 24,15.3 "/>
</svg>
