<svg xmlns="http://www.w3.org/2000/svg" xmlns:xlink="http://www.w3.org/1999/xlink" width="500" zoomAndPan="magnify" viewBox="0 0 375 374.999991" height="500" preserveAspectRatio="xMidYMid meet" version="1.0"><defs><clipPath id="397f2c4bed"><path d="M 77.351562 106.335938 L 286 106.335938 L 286 251.421875 L 77.351562 251.421875 Z M 77.351562 106.335938 " clip-rule="nonzero"/></clipPath><clipPath id="d746600297"><path d="M 86.953125 119.054688 L 283 119.054688 L 283 255.074219 L 86.953125 255.074219 Z M 86.953125 119.054688 " clip-rule="nonzero"/></clipPath><clipPath id="9ba93b5317"><path d="M 93.449219 18.363281 L 355.199219 18.363281 L 355.199219 263.613281 L 93.449219 263.613281 Z M 93.449219 18.363281 " clip-rule="nonzero"/></clipPath></defs><rect x="-37.5" width="450" fill="#ffffff" y="-37.499999" height="449.999989" fill-opacity="1"/><rect x="-37.5" width="450" fill="#ffffff" y="-37.499999" height="449.999989" fill-opacity="1"/><path fill="#fed049" d="M 182.277344 23.625 C 178.984375 23.617188 175.695312 23.722656 172.410156 23.9375 C 169.125 24.148438 165.847656 24.472656 162.585938 24.902344 C 159.320312 25.332031 156.074219 25.867188 152.84375 26.511719 C 149.613281 27.15625 146.410156 27.90625 143.230469 28.765625 C 140.050781 29.621094 136.902344 30.582031 133.789062 31.644531 C 130.671875 32.710938 127.59375 33.875 124.554688 35.144531 C 121.515625 36.410156 118.523438 37.777344 115.574219 39.242188 C 112.625 40.710938 109.730469 42.269531 106.882812 43.929688 C 104.039062 45.585938 101.25 47.335938 98.523438 49.175781 C 95.792969 51.015625 93.125 52.945312 90.523438 54.964844 C 87.921875 56.980469 85.390625 59.082031 82.925781 61.269531 C 80.460938 63.453125 78.074219 65.71875 75.761719 68.0625 C 73.445312 70.402344 71.214844 72.820312 69.058594 75.3125 C 66.90625 77.800781 64.835938 80.359375 62.851562 82.988281 C 60.867188 85.617188 58.972656 88.304688 57.164062 91.058594 C 55.359375 93.8125 53.644531 96.621094 52.023438 99.488281 C 50.402344 102.351562 48.878906 105.269531 47.449219 108.234375 C 46.019531 111.203125 44.691406 114.214844 43.460938 117.269531 C 42.234375 120.324219 41.105469 123.414062 40.082031 126.542969 C 39.054688 129.671875 38.136719 132.832031 37.320312 136.023438 C 36.503906 139.210938 35.792969 142.425781 35.191406 145.664062 C 34.585938 148.898438 34.089844 152.152344 33.703125 155.421875 C 33.3125 158.691406 33.035156 161.972656 32.863281 165.261719 C 32.691406 168.546875 32.628906 171.839844 32.671875 175.132812 C 32.71875 178.421875 32.871094 181.710938 33.136719 184.992188 C 33.398438 188.273438 33.769531 191.546875 34.25 194.800781 C 34.730469 198.058594 35.316406 201.296875 36.007812 204.519531 C 36.703125 207.738281 37.5 210.929688 38.40625 214.09375 C 39.308594 217.261719 40.316406 220.394531 41.429688 223.492188 C 42.539062 226.59375 43.75 229.652344 45.066406 232.671875 C 46.378906 235.691406 47.789062 238.664062 49.300781 241.589844 C 50.8125 244.515625 52.417969 247.390625 54.117188 250.207031 L 33.019531 313.484375 C 32.933594 313.75 32.859375 314.019531 32.800781 314.296875 C 32.746094 314.570312 32.707031 314.847656 32.683594 315.128906 C 32.65625 315.410156 32.652344 315.691406 32.660156 315.972656 C 32.671875 316.253906 32.695312 316.53125 32.738281 316.808594 C 32.78125 317.089844 32.839844 317.363281 32.914062 317.632812 C 32.988281 317.90625 33.082031 318.171875 33.1875 318.429688 C 33.292969 318.691406 33.414062 318.945312 33.550781 319.191406 C 33.6875 319.4375 33.839844 319.671875 34.003906 319.902344 C 34.167969 320.128906 34.34375 320.347656 34.535156 320.554688 C 34.726562 320.761719 34.925781 320.957031 35.140625 321.140625 C 35.355469 321.324219 35.578125 321.492188 35.8125 321.648438 C 36.042969 321.808594 36.285156 321.949219 36.535156 322.078125 C 36.785156 322.207031 37.042969 322.320312 37.308594 322.417969 C 37.570312 322.515625 37.839844 322.597656 38.113281 322.664062 C 38.386719 322.726562 38.664062 322.777344 38.941406 322.8125 C 39.222656 322.84375 39.503906 322.863281 39.785156 322.863281 C 40.554688 322.863281 41.304688 322.738281 42.039062 322.492188 L 105.3125 301.402344 C 107.769531 302.882812 110.273438 304.285156 112.8125 305.621094 C 115.355469 306.953125 117.929688 308.214844 120.542969 309.398438 C 123.15625 310.585938 125.804688 311.695312 128.480469 312.726562 C 131.15625 313.761719 133.863281 314.714844 136.59375 315.59375 C 139.328125 316.472656 142.082031 317.269531 144.859375 317.988281 C 147.640625 318.707031 150.433594 319.347656 153.25 319.902344 C 156.066406 320.460938 158.894531 320.9375 161.738281 321.332031 C 164.578125 321.730469 167.429688 322.042969 170.289062 322.273438 C 173.152344 322.503906 176.015625 322.652344 178.886719 322.71875 C 181.753906 322.785156 184.621094 322.769531 187.492188 322.667969 C 190.359375 322.570312 193.222656 322.386719 196.078125 322.125 C 198.9375 321.859375 201.785156 321.515625 204.621094 321.085938 C 207.460938 320.660156 210.28125 320.152344 213.089844 319.5625 C 215.898438 318.96875 218.6875 318.300781 221.457031 317.550781 C 224.226562 316.796875 226.972656 315.96875 229.695312 315.058594 C 232.417969 314.152344 235.113281 313.164062 237.777344 312.101562 C 240.441406 311.035156 243.074219 309.898438 245.675781 308.683594 C 248.273438 307.464844 250.835938 306.175781 253.363281 304.816406 C 255.886719 303.453125 258.371094 302.015625 260.816406 300.511719 C 263.257812 299.003906 265.65625 297.429688 268.007812 295.785156 C 270.359375 294.144531 272.664062 292.433594 274.917969 290.65625 C 277.171875 288.878906 279.371094 287.039062 281.519531 285.136719 C 283.667969 283.234375 285.757812 281.269531 287.792969 279.246094 C 289.828125 277.222656 291.804688 275.144531 293.71875 273.003906 C 295.632812 270.867188 297.484375 268.679688 299.273438 266.433594 C 301.0625 264.191406 302.785156 261.898438 304.445312 259.554688 C 306.101562 257.210938 307.6875 254.820312 309.207031 252.386719 C 310.726562 249.953125 312.175781 247.476562 313.554688 244.960938 C 314.929688 242.441406 316.234375 239.886719 317.464844 237.292969 C 318.695312 234.699219 319.847656 232.074219 320.925781 229.414062 C 322.007812 226.757812 323.007812 224.066406 323.929688 221.351562 C 324.855469 218.632812 325.699219 215.894531 326.46875 213.128906 C 327.234375 210.363281 327.917969 207.578125 328.523438 204.773438 C 329.132812 201.964844 329.65625 199.148438 330.097656 196.3125 C 330.542969 193.476562 330.90625 190.628906 331.183594 187.773438 C 331.464844 184.917969 331.660156 182.054688 331.777344 179.1875 C 331.890625 176.320312 331.925781 173.453125 331.875 170.582031 C 331.824219 167.714844 331.691406 164.847656 331.476562 161.988281 C 331.261719 159.125 330.964844 156.273438 330.585938 153.429688 C 330.207031 150.582031 329.746094 147.753906 329.203125 144.933594 C 328.660156 142.117188 328.039062 139.316406 327.335938 136.535156 C 326.632812 133.75 325.851562 130.992188 324.988281 128.253906 C 324.125 125.515625 323.183594 122.808594 322.167969 120.125 C 321.148438 117.441406 320.054688 114.789062 318.882812 112.167969 C 317.710938 109.550781 316.46875 106.964844 315.148438 104.417969 C 313.828125 101.867188 312.4375 99.359375 310.972656 96.890625 C 309.507812 94.421875 307.976562 92 306.371094 89.621094 C 304.769531 87.238281 303.097656 84.90625 301.359375 82.625 C 299.621094 80.339844 297.820312 78.109375 295.953125 75.929688 C 294.085938 73.746094 292.160156 71.625 290.171875 69.554688 C 288.183594 67.484375 286.136719 65.476562 284.03125 63.523438 C 281.929688 61.570312 279.769531 59.683594 277.558594 57.855469 C 275.34375 56.027344 273.082031 54.265625 270.765625 52.570312 C 268.453125 50.871094 266.089844 49.242188 263.683594 47.683594 C 261.273438 46.121094 258.824219 44.632812 256.328125 43.210938 C 253.835938 41.792969 251.304688 40.445312 248.730469 39.171875 C 246.160156 37.898438 243.554688 36.699219 240.914062 35.574219 C 238.273438 34.449219 235.601562 33.402344 232.902344 32.433594 C 230.203125 31.460938 227.476562 30.570312 224.722656 29.757812 C 221.972656 28.941406 219.199219 28.210938 216.402344 27.554688 C 213.609375 26.902344 210.796875 26.328125 207.972656 25.835938 C 205.144531 25.34375 202.304688 24.933594 199.453125 24.605469 C 196.601562 24.277344 193.746094 24.03125 190.878906 23.867188 C 188.015625 23.703125 185.148438 23.621094 182.277344 23.625 Z M 182.277344 308.613281 C 175.910156 308.609375 169.578125 308.15625 163.277344 307.253906 C 156.976562 306.351562 150.769531 305.011719 144.65625 303.230469 C 138.542969 301.453125 132.589844 299.25 126.789062 296.628906 C 120.988281 294.003906 115.402344 290.984375 110.027344 287.570312 C 108.863281 286.835938 107.59375 286.464844 106.214844 286.464844 C 105.445312 286.464844 104.691406 286.585938 103.960938 286.835938 L 51.039062 304.472656 L 68.683594 251.558594 C 69.019531 250.542969 69.125 249.503906 68.996094 248.441406 C 68.867188 247.378906 68.515625 246.398438 67.949219 245.492188 C 66.625 243.394531 65.363281 241.261719 64.15625 239.097656 C 62.953125 236.929688 61.808594 234.734375 60.722656 232.503906 C 59.640625 230.277344 58.617188 228.019531 57.65625 225.734375 C 56.699219 223.449219 55.800781 221.140625 54.96875 218.804688 C 54.132812 216.46875 53.367188 214.113281 52.664062 211.738281 C 51.960938 209.359375 51.320312 206.96875 50.75 204.554688 C 50.175781 202.144531 49.671875 199.71875 49.234375 197.277344 C 48.792969 194.839844 48.421875 192.390625 48.121094 189.929688 C 47.816406 187.46875 47.578125 185.003906 47.410156 182.53125 C 47.242188 180.058594 47.140625 177.582031 47.109375 175.101562 C 47.078125 172.625 47.113281 170.148438 47.214844 167.671875 C 47.320312 165.195312 47.492188 162.722656 47.730469 160.253906 C 47.972656 157.789062 48.277344 155.328125 48.652344 152.878906 C 49.027344 150.429688 49.46875 147.992188 49.980469 145.566406 C 50.488281 143.140625 51.0625 140.730469 51.703125 138.335938 C 52.347656 135.941406 53.050781 133.566406 53.824219 131.210938 C 54.597656 128.855469 55.433594 126.523438 56.332031 124.214844 C 57.234375 121.90625 58.195312 119.621094 59.222656 117.363281 C 60.246094 115.109375 61.332031 112.882812 62.480469 110.683594 C 63.628906 108.488281 64.835938 106.324219 66.105469 104.195312 C 67.371094 102.0625 68.695312 99.96875 70.078125 97.914062 C 71.457031 95.855469 72.894531 93.835938 74.390625 91.859375 C 75.882812 89.878906 77.429688 87.945312 79.027344 86.050781 C 80.628906 84.15625 82.277344 82.308594 83.976562 80.503906 C 85.679688 78.703125 87.429688 76.949219 89.226562 75.242188 C 91.023438 73.535156 92.867188 71.878906 94.753906 70.273438 C 96.644531 68.667969 98.574219 67.113281 100.546875 65.617188 C 102.523438 64.117188 104.535156 62.671875 106.589844 61.285156 C 108.640625 59.894531 110.730469 58.5625 112.859375 57.289062 C 114.984375 56.015625 117.144531 54.800781 119.335938 53.648438 C 121.53125 52.492188 123.753906 51.398438 126.007812 50.367188 C 128.257812 49.332031 130.539062 48.363281 132.847656 47.457031 C 135.152344 46.546875 137.480469 45.703125 139.835938 44.925781 C 142.1875 44.144531 144.558594 43.429688 146.953125 42.78125 C 149.34375 42.132812 151.753906 41.550781 154.175781 41.035156 C 156.601562 40.515625 159.039062 40.066406 161.488281 39.683594 C 163.9375 39.300781 166.394531 38.988281 168.859375 38.738281 C 171.324219 38.492188 173.796875 38.3125 176.273438 38.199219 C 178.75 38.089844 181.226562 38.046875 183.703125 38.070312 C 186.183594 38.09375 188.660156 38.1875 191.132812 38.347656 C 193.605469 38.507812 196.074219 38.734375 198.535156 39.03125 C 200.996094 39.328125 203.445312 39.691406 205.886719 40.121094 C 208.328125 40.554688 210.753906 41.050781 213.167969 41.613281 C 215.582031 42.179688 217.980469 42.808594 220.359375 43.503906 C 222.738281 44.203125 225.09375 44.960938 227.429688 45.789062 C 229.769531 46.613281 232.082031 47.503906 234.371094 48.457031 C 236.65625 49.40625 238.917969 50.421875 241.148438 51.5 C 243.382812 52.578125 245.582031 53.714844 247.753906 54.914062 C 249.921875 56.109375 252.058594 57.367188 254.160156 58.683594 C 256.261719 59.996094 258.324219 61.371094 260.347656 62.796875 C 262.375 64.226562 264.359375 65.710938 266.304688 67.25 C 268.246094 68.785156 270.148438 70.375 272.003906 72.019531 C 273.859375 73.660156 275.671875 75.351562 277.433594 77.09375 C 279.195312 78.835938 280.910156 80.625 282.578125 82.460938 C 284.242188 84.296875 285.855469 86.179688 287.417969 88.101562 C 288.976562 90.027344 290.484375 91.992188 291.941406 94 C 293.394531 96.007812 294.789062 98.054688 296.132812 100.140625 C 297.472656 102.222656 298.757812 104.34375 299.980469 106.5 C 301.207031 108.652344 302.371094 110.839844 303.476562 113.058594 C 304.578125 115.277344 305.621094 117.527344 306.601562 119.800781 C 307.582031 122.078125 308.5 124.378906 309.355469 126.707031 C 310.210938 129.035156 311 131.382812 311.726562 133.75 C 312.449219 136.121094 313.109375 138.511719 313.703125 140.917969 C 314.296875 143.324219 314.824219 145.742188 315.285156 148.179688 C 315.746094 150.613281 316.140625 153.0625 316.46875 155.519531 C 316.792969 157.976562 317.054688 160.4375 317.246094 162.910156 C 317.4375 165.382812 317.558594 167.855469 317.613281 170.335938 C 317.667969 172.8125 317.65625 175.289062 317.574219 177.765625 C 317.492188 180.246094 317.34375 182.71875 317.128906 185.1875 C 316.910156 187.65625 316.625 190.117188 316.273438 192.570312 C 315.921875 195.023438 315.5 197.464844 315.015625 199.898438 C 314.527344 202.328125 313.972656 204.742188 313.355469 207.140625 C 312.734375 209.542969 312.050781 211.921875 311.300781 214.285156 C 310.550781 216.648438 309.734375 218.988281 308.855469 221.304688 C 307.976562 223.625 307.035156 225.914062 306.03125 228.179688 C 305.027344 230.445312 303.960938 232.683594 302.832031 234.890625 C 301.703125 237.097656 300.515625 239.273438 299.269531 241.414062 C 298.023438 243.554688 296.714844 245.660156 295.351562 247.730469 C 293.992188 249.800781 292.570312 251.832031 291.097656 253.824219 C 289.621094 255.816406 288.09375 257.765625 286.511719 259.675781 C 284.929688 261.582031 283.296875 263.445312 281.613281 265.265625 C 279.925781 267.082031 278.195312 268.855469 276.414062 270.578125 C 274.632812 272.300781 272.804688 273.972656 270.929688 275.597656 C 269.054688 277.21875 267.140625 278.789062 265.179688 280.304688 C 263.21875 281.824219 261.21875 283.285156 259.179688 284.691406 C 257.136719 286.101562 255.0625 287.449219 252.945312 288.742188 C 250.832031 290.035156 248.683594 291.269531 246.5 292.445312 C 244.316406 293.621094 242.105469 294.734375 239.863281 295.789062 C 237.617188 296.839844 235.347656 297.832031 233.050781 298.761719 C 230.75 299.691406 228.429688 300.554688 226.082031 301.355469 C 223.738281 302.15625 221.371094 302.890625 218.984375 303.5625 C 216.597656 304.234375 214.195312 304.839844 211.777344 305.378906 C 209.359375 305.917969 206.925781 306.386719 204.480469 306.792969 C 202.035156 307.199219 199.582031 307.535156 197.117188 307.804688 C 194.652344 308.078125 192.183594 308.277344 189.707031 308.414062 C 187.234375 308.546875 184.757812 308.613281 182.277344 308.613281 Z M 125.28125 173.242188 C 125.28125 174.179688 125.1875 175.105469 125.007812 176.023438 C 124.824219 176.941406 124.554688 177.832031 124.195312 178.695312 C 123.835938 179.558594 123.398438 180.382812 122.878906 181.160156 C 122.359375 181.9375 121.769531 182.65625 121.105469 183.316406 C 120.445312 183.980469 119.726562 184.570312 118.945312 185.089844 C 118.167969 185.609375 117.347656 186.050781 116.484375 186.40625 C 115.621094 186.765625 114.726562 187.035156 113.808594 187.21875 C 112.894531 187.402344 111.964844 187.492188 111.03125 187.492188 C 110.09375 187.492188 109.167969 187.402344 108.25 187.21875 C 107.332031 187.035156 106.441406 186.765625 105.578125 186.40625 C 104.714844 186.050781 103.890625 185.609375 103.113281 185.089844 C 102.335938 184.570312 101.617188 183.980469 100.953125 183.316406 C 100.292969 182.65625 99.703125 181.9375 99.183594 181.160156 C 98.664062 180.382812 98.222656 179.558594 97.867188 178.695312 C 97.507812 177.832031 97.238281 176.941406 97.054688 176.023438 C 96.871094 175.105469 96.78125 174.179688 96.78125 173.242188 C 96.78125 172.308594 96.871094 171.378906 97.054688 170.460938 C 97.238281 169.542969 97.507812 168.652344 97.867188 167.789062 C 98.222656 166.925781 98.664062 166.105469 99.183594 165.324219 C 99.703125 164.546875 100.292969 163.828125 100.953125 163.167969 C 101.617188 162.503906 102.335938 161.914062 103.113281 161.394531 C 103.890625 160.875 104.714844 160.4375 105.578125 160.078125 C 106.441406 159.71875 107.332031 159.449219 108.25 159.265625 C 109.167969 159.085938 110.09375 158.992188 111.03125 158.992188 C 111.964844 158.992188 112.894531 159.085938 113.808594 159.265625 C 114.726562 159.449219 115.621094 159.71875 116.484375 160.078125 C 117.347656 160.4375 118.167969 160.875 118.945312 161.394531 C 119.726562 161.914062 120.445312 162.503906 121.105469 163.167969 C 121.769531 163.828125 122.359375 164.546875 122.878906 165.324219 C 123.398438 166.105469 123.835938 166.925781 124.195312 167.789062 C 124.554688 168.652344 124.824219 169.542969 125.007812 170.460938 C 125.1875 171.378906 125.28125 172.308594 125.28125 173.242188 Z M 196.527344 173.242188 C 196.527344 174.179688 196.4375 175.105469 196.253906 176.023438 C 196.070312 176.941406 195.800781 177.832031 195.441406 178.695312 C 195.085938 179.558594 194.644531 180.382812 194.125 181.160156 C 193.605469 181.9375 193.015625 182.65625 192.355469 183.316406 C 191.691406 183.980469 190.972656 184.570312 190.195312 185.089844 C 189.417969 185.609375 188.59375 186.050781 187.730469 186.40625 C 186.867188 186.765625 185.976562 187.035156 185.058594 187.21875 C 184.140625 187.402344 183.214844 187.492188 182.277344 187.492188 C 181.34375 187.492188 180.414062 187.402344 179.496094 187.21875 C 178.582031 187.035156 177.6875 186.765625 176.824219 186.40625 C 175.960938 186.050781 175.140625 185.609375 174.359375 185.089844 C 173.582031 184.570312 172.863281 183.980469 172.203125 183.316406 C 171.539062 182.65625 170.949219 181.9375 170.429688 181.160156 C 169.910156 180.382812 169.472656 179.558594 169.113281 178.695312 C 168.753906 177.832031 168.484375 176.941406 168.300781 176.023438 C 168.121094 175.105469 168.027344 174.179688 168.027344 173.242188 C 168.027344 172.308594 168.121094 171.378906 168.300781 170.460938 C 168.484375 169.542969 168.753906 168.652344 169.113281 167.789062 C 169.472656 166.925781 169.910156 166.105469 170.429688 165.324219 C 170.949219 164.546875 171.539062 163.828125 172.203125 163.167969 C 172.863281 162.503906 173.582031 161.914062 174.359375 161.394531 C 175.140625 160.875 175.960938 160.4375 176.824219 160.078125 C 177.6875 159.71875 178.582031 159.449219 179.496094 159.265625 C 180.414062 159.085938 181.34375 158.992188 182.277344 158.992188 C 183.214844 158.992188 184.140625 159.085938 185.058594 159.265625 C 185.976562 159.449219 186.867188 159.71875 187.730469 160.078125 C 188.59375 160.4375 189.417969 160.875 190.195312 161.394531 C 190.972656 161.914062 191.691406 162.503906 192.355469 163.167969 C 193.015625 163.828125 193.605469 164.546875 194.125 165.324219 C 194.644531 166.105469 195.085938 166.925781 195.441406 167.789062 C 195.800781 168.652344 196.070312 169.542969 196.253906 170.460938 C 196.4375 171.378906 196.527344 172.308594 196.527344 173.242188 Z M 267.773438 173.242188 C 267.773438 174.179688 267.683594 175.105469 267.5 176.023438 C 267.316406 176.941406 267.046875 177.832031 266.691406 178.695312 C 266.332031 179.558594 265.894531 180.382812 265.371094 181.160156 C 264.851562 181.9375 264.261719 182.65625 263.601562 183.316406 C 262.9375 183.980469 262.21875 184.570312 261.441406 185.089844 C 260.664062 185.609375 259.84375 186.050781 258.976562 186.40625 C 258.113281 186.765625 257.222656 187.035156 256.304688 187.21875 C 255.386719 187.402344 254.460938 187.492188 253.523438 187.492188 C 252.589844 187.492188 251.664062 187.402344 250.746094 187.21875 C 249.828125 187.035156 248.9375 186.765625 248.070312 186.40625 C 247.207031 186.050781 246.386719 185.609375 245.609375 185.089844 C 244.832031 184.570312 244.109375 183.980469 243.449219 183.316406 C 242.789062 182.65625 242.195312 181.9375 241.675781 181.160156 C 241.15625 180.382812 240.71875 179.558594 240.359375 178.695312 C 240.003906 177.832031 239.730469 176.941406 239.550781 176.023438 C 239.367188 175.105469 239.277344 174.179688 239.277344 173.242188 C 239.277344 172.308594 239.367188 171.378906 239.550781 170.460938 C 239.730469 169.542969 240.003906 168.652344 240.359375 167.789062 C 240.71875 166.925781 241.15625 166.105469 241.675781 165.324219 C 242.195312 164.546875 242.789062 163.828125 243.449219 163.167969 C 244.109375 162.503906 244.832031 161.914062 245.609375 161.394531 C 246.386719 160.875 247.207031 160.4375 248.070312 160.078125 C 248.9375 159.71875 249.828125 159.449219 250.746094 159.265625 C 251.664062 159.085938 252.589844 158.992188 253.523438 158.992188 C 254.460938 158.992188 255.386719 159.085938 256.304688 159.265625 C 257.222656 159.449219 258.113281 159.71875 258.976562 160.078125 C 259.84375 160.4375 260.664062 160.875 261.441406 161.394531 C 262.21875 161.914062 262.9375 162.503906 263.601562 163.167969 C 264.261719 163.828125 264.851562 164.546875 265.375 165.324219 C 265.894531 166.105469 266.332031 166.925781 266.691406 167.789062 C 267.046875 168.652344 267.316406 169.542969 267.5 170.460938 C 267.683594 171.378906 267.773438 172.308594 267.773438 173.242188 Z M 267.773438 173.242188 " fill-opacity="1" fill-rule="nonzero"/><g clip-path="url(#397f2c4bed)"><path fill="#ffffff" d="M 77.351562 106.335938 L 285.910156 106.335938 L 285.910156 251.421875 L 77.351562 251.421875 Z M 77.351562 106.335938 " fill-opacity="1" fill-rule="nonzero"/></g><g clip-path="url(#d746600297)"><path fill="#ffffff" d="M 86.953125 119.054688 L 282.480469 119.054688 L 282.480469 255.074219 L 86.953125 255.074219 Z M 86.953125 119.054688 " fill-opacity="1" fill-rule="nonzero"/></g><path fill="#00802c" d="M 96.285156 163.417969 L 178.25 258.355469 C 220.011719 173.390625 271.132812 95.222656 353.308594 21.011719 C 291.808594 55.648438 224.015625 121.417969 166.105469 202.804688 Z M 96.285156 163.417969 " fill-opacity="1" fill-rule="nonzero"/><g clip-path="url(#9ba93b5317)"><path stroke-linecap="butt" transform="matrix(0.284876, 0, 0, 0.284332, -94.158402, 295.365009)" fill="none" stroke-linejoin="miter" d="M 668.514917 -464.060012 L 956.236492 -130.163191 C 1102.83285 -428.986008 1282.283465 -703.904099 1570.745495 -964.905243 C 1354.861757 -843.087307 1116.887781 -611.774735 913.605487 -325.536245 Z M 668.514917 -464.060012 " stroke="#007f00" stroke-width="19.892" stroke-opacity="1" stroke-miterlimit="4"/></g></svg>
